<?xml version="1.0" encoding="UTF-8"?>
<svg xmlns="http://www.w3.org/2000/svg" xmlns:xlink="http://www.w3.org/1999/xlink" viewBox="0 0 48 48" width="100px" height="100px">
  <defs>
    <style>
      .cls-1 {
        fill: url(#linear-gradient-15);
      }

      .cls-2 {
        fill: url(#linear-gradient-13);
      }

      .cls-3 {
        fill: url(#linear-gradient-2);
      }

      .cls-4 {
        fill: url(#linear-gradient-10);
      }

      .cls-5 {
        fill: url(#linear-gradient-12);
      }

      .cls-6 {
        fill: url(#linear-gradient-4);
      }

      .cls-7 {
        fill: url(#linear-gradient-3);
      }

      .cls-8 {
        fill: url(#linear-gradient-5);
      }

      .cls-9 {
        fill: url(#linear-gradient-8);
      }

      .cls-10 {
        fill: url(#linear-gradient-14);
      }

      .cls-11 {
        fill: url(#linear-gradient-20);
      }

      .cls-12 {
        fill: url(#linear-gradient-17);
      }

      .cls-13 {
        fill: url(#linear-gradient-7);
      }

      .cls-14 {
        fill: url(#linear-gradient-9);
      }

      .cls-15 {
        fill: url(#linear-gradient-11);
      }

      .cls-16 {
        fill: url(#linear-gradient-19);
      }

      .cls-17 {
        fill: url(#linear-gradient-6);
      }

      .cls-18 {
        fill: url(#linear-gradient-16);
      }

      .cls-19 {
        fill: url(#linear-gradient);
      }

      .cls-20 {
        fill: url(#linear-gradient-18);
      }
    </style>
    <linearGradient id="linear-gradient" x1="14.69" y1="2.66" x2="35.66" y2="42.11" gradientUnits="userSpaceOnUse">
      <stop offset="0" stop-color="#f2fcff"/>
      <stop offset=".55" stop-color="#c1f3f9"/>
      <stop offset=".97" stop-color="#baccfd"/>
    </linearGradient>
    <linearGradient id="linear-gradient-2" x1="14.92" y1="3.19" x2="35.36" y2="41.63" gradientUnits="userSpaceOnUse">
      <stop offset="0" stop-color="#effbff"/>
      <stop offset=".55" stop-color="#b3f0f8"/>
      <stop offset=".97" stop-color="#abc1fd"/>
    </linearGradient>
    <linearGradient id="linear-gradient-3" x1="15.16" y1="3.72" x2="35.07" y2="41.15" gradientUnits="userSpaceOnUse">
      <stop offset="0" stop-color="#ecfbff"/>
      <stop offset=".55" stop-color="#a5edf7"/>
      <stop offset=".97" stop-color="#9bb5fc"/>
    </linearGradient>
    <linearGradient id="linear-gradient-4" x1="15.39" y1="4.25" x2="34.77" y2="40.68" gradientUnits="userSpaceOnUse">
      <stop offset="0" stop-color="#eafaff"/>
      <stop offset=".55" stop-color="#98ebf5"/>
      <stop offset=".97" stop-color="#8caafc"/>
    </linearGradient>
    <linearGradient id="linear-gradient-5" x1="15.63" y1="4.77" x2="34.47" y2="40.2" gradientUnits="userSpaceOnUse">
      <stop offset="0" stop-color="#e7f9ff"/>
      <stop offset=".55" stop-color="#8ae8f4"/>
      <stop offset=".97" stop-color="#7c9ffc"/>
    </linearGradient>
    <linearGradient id="linear-gradient-6" x1="15.87" y1="5.3" x2="34.17" y2="39.72" gradientUnits="userSpaceOnUse">
      <stop offset="0" stop-color="#e4f9fe"/>
      <stop offset=".55" stop-color="#7ce5f3"/>
      <stop offset=".97" stop-color="#6d93fb"/>
    </linearGradient>
    <linearGradient id="linear-gradient-7" x1="16.1" y1="5.83" x2="33.88" y2="39.25" gradientUnits="userSpaceOnUse">
      <stop offset="0" stop-color="#e1f8fe"/>
      <stop offset=".55" stop-color="#6ee2f2"/>
      <stop offset=".97" stop-color="#5d88fb"/>
    </linearGradient>
    <linearGradient id="linear-gradient-8" x1="16.34" y1="6.35" x2="33.58" y2="38.77" gradientUnits="userSpaceOnUse">
      <stop offset="0" stop-color="#dff7fe"/>
      <stop offset=".55" stop-color="#61e0f0"/>
      <stop offset=".97" stop-color="#4e7dfb"/>
    </linearGradient>
    <linearGradient id="linear-gradient-9" x1="16.58" y1="6.88" x2="33.28" y2="38.29" gradientUnits="userSpaceOnUse">
      <stop offset="0" stop-color="#dcf7fe"/>
      <stop offset=".55" stop-color="#53ddef"/>
      <stop offset=".97" stop-color="#3e71fa"/>
    </linearGradient>
    <linearGradient id="linear-gradient-10" x1="16.81" y1="7.41" x2="32.98" y2="37.81" gradientUnits="userSpaceOnUse">
      <stop offset="0" stop-color="#d9f6fe"/>
      <stop offset=".55" stop-color="#45daee"/>
      <stop offset=".97" stop-color="#2f66fa"/>
    </linearGradient>
    <linearGradient id="linear-gradient-11" x1="24" y1="34.31" x2="24" y2="16.33" gradientUnits="userSpaceOnUse">
      <stop offset="0" stop-color="#f8f7fb"/>
      <stop offset=".55" stop-color="#cccce0"/>
      <stop offset=".97" stop-color="#b1c1da"/>
    </linearGradient>
    <linearGradient id="linear-gradient-12" x1="24" y1="34.15" x2="24" y2="16.88" gradientUnits="userSpaceOnUse">
      <stop offset="0" stop-color="#f7f5fa"/>
      <stop offset=".55" stop-color="#c1c1d9"/>
      <stop offset=".97" stop-color="#a0b3d2"/>
    </linearGradient>
    <linearGradient id="linear-gradient-13" x1="24" y1="33.99" x2="24" y2="17.42" gradientUnits="userSpaceOnUse">
      <stop offset="0" stop-color="#f5f4f9"/>
      <stop offset=".55" stop-color="#b5b6d2"/>
      <stop offset=".97" stop-color="#8ea6ca"/>
    </linearGradient>
    <linearGradient id="linear-gradient-14" x1="24" y1="33.82" x2="24" y2="17.94" gradientUnits="userSpaceOnUse">
      <stop offset="0" stop-color="#f4f2f8"/>
      <stop offset=".55" stop-color="#aaaacb"/>
      <stop offset=".97" stop-color="#7d98c2"/>
    </linearGradient>
    <linearGradient id="linear-gradient-15" x1="24" y1="33.66" x2="24" y2="18.45" gradientUnits="userSpaceOnUse">
      <stop offset="0" stop-color="#f2f0f7"/>
      <stop offset=".55" stop-color="#9e9fc4"/>
      <stop offset=".97" stop-color="#6b8aba"/>
    </linearGradient>
    <linearGradient id="linear-gradient-16" x1="24" y1="33.5" x2="24" y2="18.94" gradientUnits="userSpaceOnUse">
      <stop offset="0" stop-color="#f1eff6"/>
      <stop offset=".55" stop-color="#9394bd"/>
      <stop offset=".97" stop-color="#5a7db1"/>
    </linearGradient>
    <linearGradient id="linear-gradient-17" x1="24" y1="33.34" x2="24" y2="19.42" gradientUnits="userSpaceOnUse">
      <stop offset="0" stop-color="#efedf5"/>
      <stop offset=".55" stop-color="#8789b6"/>
      <stop offset=".97" stop-color="#486fa9"/>
    </linearGradient>
    <linearGradient id="linear-gradient-18" x1="24" y1="33.17" x2="24" y2="19.88" gradientUnits="userSpaceOnUse">
      <stop offset="0" stop-color="#eeebf4"/>
      <stop offset=".55" stop-color="#7c7daf"/>
      <stop offset=".97" stop-color="#3761a1"/>
    </linearGradient>
    <linearGradient id="linear-gradient-19" x1="24" y1="33.01" x2="24" y2="20.33" gradientUnits="userSpaceOnUse">
      <stop offset="0" stop-color="#eceaf3"/>
      <stop offset=".55" stop-color="#7072a8"/>
      <stop offset=".97" stop-color="#255499"/>
    </linearGradient>
    <linearGradient id="linear-gradient-20" x1="24" y1="32.85" x2="24" y2="20.77" gradientUnits="userSpaceOnUse">
      <stop offset="0" stop-color="#ebe8f2"/>
      <stop offset=".55" stop-color="#6567a1"/>
      <stop offset=".97" stop-color="#144691"/>
    </linearGradient>
  </defs>
  <g>
    <path class="cls-19" d="M22.19,5.29l-10.48,3.39c-2.21.72-3.71,2.78-3.71,5.11v9.07c0,7.48,4.11,14.34,10.69,17.87l3.32,1.78c1.25.67,2.74.67,3.99,0l3.32-1.78c6.58-3.52,10.69-10.39,10.69-17.87v-9.07c0-2.33-1.5-4.39-3.71-5.11l-10.48-3.39c-1.18-.38-2.44-.38-3.62,0Z"/>
    <path class="cls-3" d="M22.32,5.75l-10.48,3.39c-2.04.66-3.42,2.56-3.42,4.71v9.21c0,7.17,3.94,13.77,10.26,17.15l3.51,1.88c1.13.61,2.49.61,3.62,0l3.51-1.88c6.31-3.38,10.26-9.97,10.26-17.15v-9.21c0-2.15-1.38-4.05-3.42-4.71l-10.48-3.39c-1.09-.35-2.26-.35-3.35,0Z"/>
    <path class="cls-7" d="M22.46,6.21l-10.49,3.39c-1.87.6-3.13,2.34-3.13,4.31v9.34c0,6.87,3.78,13.19,9.83,16.43l3.71,1.98c1.01.54,2.23.54,3.25,0l3.71-1.98c6.05-3.24,9.83-9.56,9.83-16.43v-9.34c0-1.96-1.26-3.7-3.13-4.31l-10.48-3.39c-1-.32-2.08-.32-3.09,0Z"/>
    <path class="cls-6" d="M22.59,6.68l-10.49,3.39c-1.69.55-2.84,2.12-2.84,3.91v9.47c0,6.57,3.61,12.61,9.4,15.71l3.9,2.09c.9.48,1.98.48,2.88,0l3.9-2.09c5.79-3.1,9.4-9.14,9.4-15.71v-9.47c0-1.78-1.15-3.36-2.84-3.91l-10.49-3.39c-.92-.3-1.9-.3-2.82,0Z"/>
    <path class="cls-8" d="M22.72,7.14l-10.49,3.39c-1.52.49-2.55,1.91-2.55,3.5v9.61c0,6.27,3.45,12.04,8.97,15l4.09,2.19c.78.42,1.73.42,2.51,0l4.09-2.19c5.52-2.96,8.97-8.72,8.97-15v-9.61c0-1.6-1.03-3.02-2.55-3.51l-10.49-3.39c-.83-.27-1.72-.27-2.55,0Z"/>
    <path class="cls-17" d="M22.86,7.61l-10.5,3.39c-1.34.43-2.26,1.69-2.26,3.1v9.74c0,5.97,3.28,11.46,8.54,14.28l4.28,2.29c.67.36,1.47.36,2.14,0l4.28-2.29c5.26-2.82,8.54-8.3,8.54-14.28v-9.74c0-1.42-.91-2.67-2.26-3.11l-10.49-3.39c-.74-.24-1.54-.24-2.28,0Z"/>
    <path class="cls-13" d="M22.99,8.07l-10.5,3.39c-1.17.38-1.97,1.47-1.97,2.7v9.88c0,5.67,3.12,10.88,8.11,13.56l4.47,2.4c.55.3,1.22.3,1.77,0l4.47-2.4c5-2.68,8.11-7.89,8.11-13.56v-9.87c0-1.23-.8-2.33-1.97-2.71l-10.5-3.39c-.66-.21-1.36-.21-2.02,0Z"/>
    <path class="cls-9" d="M23.13,8.54l-10.5,3.4c-1,.32-1.67,1.25-1.67,2.3v10.01c0,5.37,2.95,10.31,7.69,12.84l4.66,2.5c.44.24.97.24,1.4,0l4.66-2.5c4.73-2.53,7.69-7.47,7.69-12.84v-10.01c0-1.05-.68-1.98-1.68-2.31l-10.5-3.39c-.57-.18-1.18-.18-1.75,0Z"/>
    <path class="cls-14" d="M23.26,9l-10.51,3.4c-.82.27-1.38,1.03-1.38,1.9v10.14c0,5.07,2.79,9.73,7.26,12.12l4.86,2.6c.32.17.71.17,1.04,0l4.86-2.6c4.47-2.39,7.26-7.05,7.26-12.12v-10.14c0-.87-.56-1.64-1.39-1.91l-10.5-3.4c-.48-.16-1-.16-1.48,0Z"/>
    <path class="cls-4" d="M23.39,9.47l-10.51,3.4c-.65.21-1.09.82-1.09,1.5v10.28c0,4.77,2.62,9.15,6.83,11.4l5.05,2.7c.21.11.46.11.67,0l5.05-2.7c4.2-2.25,6.83-6.64,6.83-11.4v-10.27c0-.69-.44-1.3-1.1-1.51l-10.51-3.4c-.4-.13-.82-.13-1.22,0Z"/>
  </g>
  <g>
    <path class="cls-15" d="M27.97,22c0-2.5-2.32-4.46-4.92-3.86-1.4.33-2.55,1.46-2.89,2.86-.46,1.86.4,3.55,1.82,4.4.02,0,.02.02.02.04v3.49c0,1,.68,1.92,1.66,2.08,1.25.2,2.34-.76,2.34-1.97v-3.6s0-.03.02-.04c1.16-.69,1.94-1.95,1.94-3.4Z"/>
    <path class="cls-5" d="M27.86,22c0-2.43-2.24-4.33-4.77-3.76-1.38.31-2.5,1.42-2.83,2.8-.43,1.8.4,3.43,1.77,4.26.05.03.08.09.08.15v3.49c0,.95.65,1.82,1.59,1.96,1.18.18,2.19-.72,2.19-1.86v-3.58c0-.06.03-.12.08-.15,1.12-.68,1.89-1.89,1.89-3.3Z"/>
    <path class="cls-2" d="M27.75,22c0-2.36-2.17-4.2-4.62-3.66-1.35.3-2.46,1.39-2.78,2.74-.41,1.74.4,3.32,1.72,4.12.09.05.14.15.14.25v3.49c0,.9.63,1.71,1.52,1.84,1.1.16,2.04-.69,2.04-1.76v-3.57c0-.1.06-.2.15-.25,1.09-.66,1.83-1.84,1.83-3.21Z"/>
    <path class="cls-10" d="M27.65,22c0-2.28-2.1-4.07-4.47-3.55-1.33.29-2.41,1.36-2.72,2.69-.39,1.68.39,3.21,1.68,3.98.12.07.2.21.2.35v3.49c0,.85.6,1.61,1.44,1.72,1.02.13,1.89-.65,1.89-1.65v-3.56c0-.15.08-.28.21-.36,1.06-.64,1.77-1.79,1.77-3.11Z"/>
    <path class="cls-1" d="M27.54,22c0-2.21-2.02-3.94-4.32-3.45-1.3.28-2.37,1.33-2.66,2.63-.37,1.62.39,3.1,1.63,3.84.16.1.26.27.26.45v3.49c0,.8.58,1.51,1.37,1.6.94.11,1.74-.62,1.74-1.54v-3.55c0-.19.1-.36.27-.46,1.02-.62,1.72-1.73,1.72-3.02Z"/>
    <path class="cls-18" d="M27.43,22c0-2.14-1.95-3.81-4.17-3.35-1.28.26-2.33,1.3-2.61,2.57-.35,1.57.38,2.98,1.58,3.71.2.12.32.33.32.56v3.5c0,.75.55,1.41,1.3,1.48.86.09,1.59-.59,1.59-1.43v-3.54c0-.23.13-.44.33-.56.99-.6,1.66-1.68,1.66-2.92Z"/>
    <path class="cls-12" d="M27.32,22c0-2.06-1.88-3.68-4.02-3.25-1.25.25-2.28,1.27-2.55,2.52-.32,1.51.38,2.87,1.53,3.57.23.14.38.39.38.66v3.5c0,.7.53,1.3,1.22,1.36.79.06,1.45-.55,1.45-1.32v-3.53c0-.28.15-.52.39-.67.96-.58,1.6-1.62,1.6-2.83Z"/>
    <path class="cls-20" d="M27.22,22c0-1.99-1.81-3.56-3.87-3.15-1.23.24-2.24,1.24-2.49,2.46-.3,1.45.37,2.76,1.48,3.43.27.16.44.45.44.76v3.5c0,.65.5,1.2,1.15,1.24.71.04,1.3-.52,1.3-1.22v-3.52c0-.32.18-.6.45-.77.92-.56,1.54-1.57,1.54-2.73Z"/>
    <path class="cls-16" d="M27.11,22c0-1.91-1.73-3.43-3.71-3.05-1.2.23-2.19,1.2-2.43,2.41-.28,1.39.37,2.65,1.43,3.29.31.18.5.51.5.87v3.5c0,.6.47,1.1,1.07,1.12.63.02,1.15-.48,1.15-1.11v-3.51c0-.36.2-.69.51-.88.89-.54,1.49-1.52,1.49-2.64Z"/>
    <path class="cls-11" d="M27,22c0-1.84-1.66-3.3-3.56-2.95-1.18.21-2.15,1.17-2.38,2.35-.26,1.33.37,2.53,1.39,3.15.34.21.56.57.56.97v3.5c0,.55.45,1,1,1s1-.45,1-1v-3.5c0-.41.22-.77.57-.98.86-.53,1.43-1.46,1.43-2.54Z"/>
  </g>
</svg>