<svg width="198" height="194" viewBox="0 0 198 194" fill="none" xmlns="http://www.w3.org/2000/svg">
<path d="M99.2453 96.8682V0C80.3407 55.8149 60.221 78.3803 0.594238 96.8682H99.2453Z" fill="url(#paint0_linear_6_159)"/>
<path d="M98.6512 96.8682V0C117.556 55.8149 137.675 78.3803 197.302 96.8682H98.6512Z" fill="url(#paint1_linear_6_159)"/>
<path d="M98.651 96.2739V193.142C79.7465 137.327 59.6268 114.762 0 96.2739H98.651Z" fill="url(#paint2_linear_6_159)"/>
<path d="M98.057 96.2739V193.142C116.962 137.327 137.081 114.762 196.708 96.2739H98.057Z" fill="url(#paint3_linear_6_159)"/>
<g filter="url(#filter0_d_6_159)">
<path d="M99.2439 98.034V48.7312C89.6221 77.1393 79.3818 88.6243 49.0337 98.034H99.2439Z" fill="url(#paint4_linear_6_159)"/>
<path d="M98.9411 98.034V48.7312C108.563 77.1393 118.803 88.6243 149.151 98.034H98.9411Z" fill="url(#paint5_linear_6_159)"/>
<path d="M98.9412 97.7316V147.034C89.3194 118.626 79.0791 107.141 48.731 97.7316H98.9412Z" fill="url(#paint6_linear_6_159)"/>
<path d="M98.6384 97.7316V147.034C108.26 118.626 118.501 107.141 148.849 97.7316H98.6384Z" fill="url(#paint7_linear_6_159)"/>
</g>
<defs>
<filter id="filter0_d_6_159" x="43.9767" y="48.7312" width="109.929" height="107.812" filterUnits="userSpaceOnUse" color-interpolation-filters="sRGB">
<feFlood flood-opacity="0" result="BackgroundImageFix"/>
<feColorMatrix in="SourceAlpha" type="matrix" values="0 0 0 0 0 0 0 0 0 0 0 0 0 0 0 0 0 0 127 0" result="hardAlpha"/>
<feOffset dy="4.75427"/>
<feGaussianBlur stdDeviation="2.37713"/>
<feComposite in2="hardAlpha" operator="out"/>
<feColorMatrix type="matrix" values="0 0 0 0 0.556624 0 0 0 0 0.81526 0 0 0 0 1 0 0 0 1 0"/>
<feBlend mode="normal" in2="BackgroundImageFix" result="effect1_dropShadow_6_159"/>
<feBlend mode="normal" in="SourceGraphic" in2="effect1_dropShadow_6_159" result="shape"/>
</filter>
<linearGradient id="paint0_linear_6_159" x1="98.651" y1="16.0457" x2="8.9142" y2="94.4911" gradientUnits="userSpaceOnUse">
<stop stop-color="#DFF1FF"/>
<stop offset="1" stop-color="#8ED0FF"/>
</linearGradient>
<linearGradient id="paint1_linear_6_159" x1="99.2455" y1="16.0457" x2="188.982" y2="94.4911" gradientUnits="userSpaceOnUse">
<stop stop-color="#DFF1FF"/>
<stop offset="1" stop-color="#8ED0FF"/>
</linearGradient>
<linearGradient id="paint2_linear_6_159" x1="98.0568" y1="177.096" x2="8.31996" y2="98.651" gradientUnits="userSpaceOnUse">
<stop stop-color="#DFF1FF"/>
<stop offset="1" stop-color="#8ED0FF"/>
</linearGradient>
<linearGradient id="paint3_linear_6_159" x1="98.6513" y1="177.096" x2="188.388" y2="98.651" gradientUnits="userSpaceOnUse">
<stop stop-color="#DFF1FF"/>
<stop offset="1" stop-color="#8ED0FF"/>
</linearGradient>
<linearGradient id="paint4_linear_6_159" x1="74.1388" y1="48.7312" x2="74.1388" y2="98.034" gradientUnits="userSpaceOnUse">
<stop stop-color="#C8E4F8"/>
<stop offset="1" stop-color="#8ED0FF"/>
</linearGradient>
<linearGradient id="paint5_linear_6_159" x1="124.046" y1="48.7312" x2="124.046" y2="98.034" gradientUnits="userSpaceOnUse">
<stop stop-color="#C8E4F8"/>
<stop offset="1" stop-color="#8ED0FF"/>
</linearGradient>
<linearGradient id="paint6_linear_6_159" x1="98.6507" y1="102.811" x2="73.8361" y2="147.034" gradientUnits="userSpaceOnUse">
<stop stop-color="#8ED0FF"/>
<stop offset="1" stop-color="#F7FBFF"/>
</linearGradient>
<linearGradient id="paint7_linear_6_159" x1="98.9288" y1="102.811" x2="123.744" y2="147.034" gradientUnits="userSpaceOnUse">
<stop stop-color="#8ED0FF"/>
<stop offset="1" stop-color="#F7FBFF"/>
</linearGradient>
</defs>
</svg>
